<svg viewBox="0 0 1100 1058.97" xmlns="http://www.w3.org/2000/svg" xmlns:xlink="http://www.w3.org/1999/xlink"><linearGradient id="a" gradientUnits="userSpaceOnUse" x1="580.84" x2="584.54" y1="831.78" y2="858.42"><stop offset="0" stop-color="#e5b87f"/><stop offset=".15" stop-color="#ffd49a"/><stop offset=".42" stop-color="#ffe6a9"/><stop offset=".63" stop-color="#ffe1a5"/><stop offset=".86" stop-color="#ffd49a"/><stop offset="1" stop-color="#e5b87f"/></linearGradient><linearGradient id="b" gradientUnits="userSpaceOnUse" x1="597.44" x2="598.55" y1="837.73" y2="849.94"><stop offset="0" stop-color="#4f4f4f"/><stop offset=".42" stop-color="#454545"/><stop offset=".77" stop-color="#3a3a3a"/><stop offset="1" stop-color="#302f2f"/></linearGradient><linearGradient id="c" gradientUnits="userSpaceOnUse" x1="660.33" x2="701.42" y1="932.94" y2="932.94"><stop offset="0" stop-color="#d9c9b0"/><stop offset=".21" stop-color="#d7c7ad"/><stop offset=".36" stop-color="#d2c0a4"/><stop offset=".48" stop-color="#c8b595"/><stop offset=".6" stop-color="#bba57f"/><stop offset=".62" stop-color="#b8a17a"/><stop offset="1" stop-color="#a58c60"/></linearGradient><g fill="#4fa0cf"><path d="m378.84 601.22-218.53-317.9-1.89.67v9.4q0 236.58 0 473.15c0 13.19 1.78 11.78-11.79 11.8q-67.9.09-135.82 0c-12.16 0-10.72 1-10.72-11.11q-.09-377.71-.03-755.43c0-12.87-1.57-11.56 11.14-11.57q67-.08 134.05 0c12.39 0 12.43 0 19.23 9.82q66.52 96.39 133.07 192.8 38.31 55.5 76.68 111c1.32 1.92 2.81 3.73 4.23 5.61 3-.68 3.63-3.2 4.87-5q105.44-152.61 210.67-305.36c4.51-6.55 9.16-9.24 17.23-9.09 28.4.52 56.81.18 85.22.24 2.83 0 5.77-.63 9.37.94-35.9 19.45-65.56 46.16-87.95 80.57-21.12 32.47-34.88 69.45-42.14 107.48-4 21.15-6.07 42.82-4.58 64.34a174.68 174.68 0 0 0 5.15 32.42c2.37 9.07 7.46 17.69 1.52 26.27q-28 40.49-55.82 81.15-69.09 100.52-138.21 201.08c-1.33 1.93-2.79 3.78-4.95 6.72z"/><path d="m910.75.21h99.41c2.07 0 4.15.1 6.21 0 3.44-.16 4.81 1.51 4.63 4.81-.09 1.77 0 3.55 0 5.33v138.47c0 1.78-.11 3.56 0 5.33.21 3.51-1.6 4.73-4.86 4.59-2.36-.09-4.73 0-7.1 0-59.17 0-118.34.21-177.51-.09-27.08-.13-62.41 17.78-69.77 57.8-3.3 17.89-.73 34.66 7 50.87 8.72 18.28 23.52 29.21 42.55 34.88s38.71 8.09 58.32 10.71c32.88 4.39 65.39 9.95 95.83 24.16 45.37 21.18 80.78 53.13 105.42 96.75 16.68 29.51 26.69 61.22 28.62 95.12 4.91 86.15-25.73 156.26-96.16 207.28-29.85 21.64-63.79 34.43-100.3 40.39a152.85 152.85 0 0 1 -24.7 1.76h-183.75c-1.77 0-3.55 0-5.32 0-7.41-.13-7.41-.14-7.58-7.2 0-1.78 0-3.55 0-5.33v-132.26c0-2.07.15-4.15 0-6.21-.32-4.09 1.19-6.15 5.54-5.76 2 .19 4.14 0 6.21 0q87.42 0 174.85 0c32.71 0 64.6-20.33 72.9-58.13 5-22.83-.38-43.51-12.94-62.42-8.83-13.29-22.8-19.29-37.81-22.9-30.76-7.41-62-12.08-93.33-16.22a93.65 93.65 0 0 1 -14.7-3.25c-30.07-9.16-59.34-20.32-84.78-39.24-50.14-37.29-81.46-86.64-92.07-148.41-7.7-44.87-4.38-89 12.78-131.48a186 186 0 0 1 36.8-57.12c21.64-23.31 45.16-44.38 74.06-58.44 23.25-11.38 47.85-18.73 73.3-23.18 4.61-.81 9.44-.58 14.17-.58q47.04-.07 94.08-.03z"/><path d="m758.17 491.34q0 45.27 0 90.51c0 8.11-.08 8-8.36 8.22-4.22.11-8.51-.19-12.73 0h-27c-.85-.07-1.74-.07-2.63-.07-.66 0-1.33 0-2 .07s-1.44 0-2.14.07c-1.89.08-3.77.15-5.59.08-5.32-.26-10.65 0-16 0-17.64-.07-30 12.58-30.11 30.26q-.72 74.07-1.29 148.18c-.07 10.5.7 9.76-9.43 9.76-11.84 0-23.68-.14-35.51.12-4.52.07-6.73-1.34-6.25-6.07a52.58 52.58 0 0 0 0-5.33q0-201 0-402.08c0-3.36-1-7 1.7-10.87 3.74 6.32 7.36 12 10.51 18 18 33.66 46.46 56.92 77.05 78.23 19.34 13.5 41.28 21.64 62.66 31 7.34 3 7.12 2.04 7.12 9.92z"/><path d="m705.45 590c-.73 0-1.44 0-2.14.07l-.19-.07z"/><path d="m135.17 965.19a66.35 66.35 0 0 0 -18.56-21.08h-114.72v101.49a7.72 7.72 0 0 0 7.71 7.73h72.29a61.22 61.22 0 0 0 61.22-61.22v-2.74a65.16 65.16 0 0 0 -7.94-24.18zm-54.53 49.59h-38.38a3.22 3.22 0 0 1 -3.22-3.22v-41.86a3.22 3.22 0 0 1 3.22-3.22h38.38c13.87 0 25.13 10.81 25.13 24.16s-11.26 24.14-25.13 24.14z"/><path d="m78.91 842.62h-69.59a7.57 7.57 0 0 0 -7.43 7.73v101.49l110.18-3.45c8.79-6.6 16-12.54 20.64-22.76 12.52-27.22.29-60.69-25.3-75.39a57.38 57.38 0 0 0 -28.5-7.62zm-2 85.31h-34.91a3 3 0 0 1 -3-3.11v-40.53a3 3 0 0 1 3-3.11h34.9c12.62 0 22.86 10.47 22.86 23.38a23.13 23.13 0 0 1 -22.89 23.37z"/><path d="m690.55 956.49c-.41-.15-.85-.26-1.26-.37l-1.37-.52c-3.6-1.5-9.68-2-13.6-2.27-3.42-.25-8.9 0-11.12 3.08a9.9 9.9 0 0 0 -1.31 3.57 78.67 78.67 0 0 1 -21.68 37.94c-28.38 28-76.28 29.7-105.65 2.73-18.94-17.42-36.65-36.14-55.08-54.11-3.1-3-2.81-4.85.12-7.81 17.27-17.46 34.32-35.14 51.49-52.67a85.89 85.89 0 0 1 14.53-11.5c9.36-6.18 20-8.73 30.52-11.55.33-11.94-4.37-23.23-4.59-35.1-6.92-.26-13.43 1.74-19.86 3.77-19.61 6.18-36 17.46-50.16 32.19q-23.08 24-46.38 47.67c-6.11 6.26-5.29 6.07-11.55-.11q-25.6-25.24-51.19-50.43c-9.58-9.36-20.31-17.27-32.59-22.6-26.3-11.47-53.3-14.06-81.19-5.59-29 8.88-51.53 26.08-66.8 52.12-13.39 22.82-18.65 47.46-14.91 74 4.25 30.15 17.9 55.11 41.32 74 46.79 37.8 113.19 33.92 155.84-8.36 17-16.87 33.84-33.89 50.82-50.79 4.84-4.85 5-4.85 9.69-.19 12.21 12.1 24.15 24.42 36.51 36.29 10.21 9.8 19.94 20.2 32 28 23.26 15 48.75 21.16 76.05 18.06 30-3.41 55-17.28 74.57-40.25 13-15.31 22-32.85 24.6-53.12-1.08-4.31-4.48-5.16-7.77-6.08zm-270.95-9c-17.68 17.43-34.77 35.51-52.79 52.51-41.61 39.36-113.3 24.86-131-33.92-13-43.13 11.8-86.22 53.67-98.39 7.21-2.07 14.42-3.11 18.49-3 23.75-.22 41.69 6.22 56.45 20.38 18.53 17.8 36.69 36 55.19 53.86 3.39 3.32 3.32 5.31-.01 8.57z"/><path d="m783.73 961.37v9.57q0 35.5 0 71c0 10.52-.78 11.28-10.93 11.36-5.92 0-11.84.15-17.75 0-5.57-.19-8-2.51-8.62-8a62.19 62.19 0 0 1 -.12-7.1v-181.09a57.72 57.72 0 0 1 .13-7.09c.64-5.19 3.31-7.66 8.91-7.85 6.79-.23 13.61-.25 20.41 0 5.7.22 7.75 2.4 7.91 8.39.22 8 .07 16 .07 24v57.62c4-1.63 5.39-4.61 7.18-7 18.35-24.3 36.85-48.5 54.81-73.09 5.22-7.15 10.83-11.11 19.92-9.85 4.65.65 9.46-.05 14.19.17 8.66.4 11.46 5.78 6.91 13.11-.93 1.5-2.08 2.87-3.15 4.28l-60.77 80.8c-4.74 6.32-4.75 6.36 0 12.67q30.93 41.1 61.88 82.18c3 4 7.24 7.69 4.55 13.38-2.82 6-8.56 4.07-13.38 4.24-5.32.19-10.66-.24-16 .12-5.61.38-9.32-1.7-12.62-6.31-18.41-25.73-37.09-51.27-55.7-76.85-1.98-2.75-3.56-5.9-7.83-8.66z"/><path d="m998.09 839.74c16.94-.44 34 4.51 49.5 14.76 8.69 5.73 9.46 8.44 4.9 17.46-2.4 4.75-4.72 9.56-7.41 14.15-3.67 6.24-6.2 6.85-12.09 2.9a133.18 133.18 0 0 0 -16.17-9.22 48.1 48.1 0 0 0 -27.69-4.14c-15.3 2-22.4 16.23-14.85 29.68 4.17 7.42 10.57 12.66 17.63 17.17 11.21 7.16 22.52 14.19 33.65 21.48 14.08 9.22 24.79 21.13 28.27 38.16 5.69 27.87-4 53.58-25 66-12.39 7.33-26.19 9.13-40.25 8.24-17.08-1.09-33.12-5.82-47.38-15.72-7.75-5.38-8.46-7.83-4.28-16.12 2.53-5 5-10.08 7.79-14.95 3.49-6.1 6.17-6.7 12.08-2.79 10.21 6.74 20.82 12.44 33.22 13.89 7.93.93 15.4-.25 21.71-5.48 6-5 8.15-11.32 6.21-19-2.16-8.54-7.55-14.67-14.62-19.36-8.63-5.72-17.48-11.09-26.26-16.56a226 226 0 0 1 -21.13-14.67c-32-25.34-26.54-77.25 2.46-96.43 9.82-6.53 21.23-9.52 39.71-9.45z"/></g><path d="m576.15 863c-2.44-8.72-6.23-17.12-5.8-26.49.14-2.93 0-5.87 1.22-8.64 8.08.59 15 4.12 21.62 8.46.76 5.59 2.06 11.23-1.62 16.38z" fill="url(#a)"/><path d="m591.57 852.74c.46-5.47-1-11.12 1.62-16.38a69.55 69.55 0 0 1 12.21 9.33 34.12 34.12 0 0 1 -13.83 7.05z" fill="url(#b)"/><path d="m651.9 896.51c3.36 4.83 19 29.53 10.81 60.76l35.34 7s6.18-28.36.9-45.74-15.78-42.9-19.89-43.53c-3.87-.56-23.8 12.33-27.32 19.39a2 2 0 0 0 .16 2.12z" fill="#4fa0cf"/><path d="m698.67 961.85a52.3 52.3 0 0 0 -35.32-7.1v-.08c4.81-25-3-41.53-3-41.53a120.17 120.17 0 0 1 33.85-9.14s12.64 20.82 4.47 57.85z" fill="url(#c)"/></svg>